HIERARCHY
ROOT Hips
{
	OFFSET 0.00000 0.00000 0.00000
	CHANNELS 6 Xposition Yposition Zposition Zrotation Yrotation Xrotation 
	JOINT LHipJoint
	{
		OFFSET 0 0 0
		CHANNELS 3 Zrotation Yrotation Xrotation
		JOINT LeftUpLeg
		{
			OFFSET 1.57358 -1.76629 0.73362
			CHANNELS 3 Zrotation Yrotation Xrotation
			JOINT LeftLeg
			{
				OFFSET 2.40600 -6.61045 0.00000
				CHANNELS 3 Zrotation Yrotation Xrotation
				JOINT LeftFoot
				{
					OFFSET 2.66168 -7.31291 0.00000
					CHANNELS 3 Zrotation Yrotation Xrotation
					JOINT LeftToeBase
					{
						OFFSET 0.20870 -0.57341 2.12506
						CHANNELS 3 Zrotation Yrotation Xrotation
						End Site
						{
							OFFSET 0.00000 -0.00000 1.10557
						}
					}
				}
			}
		}
	}
	JOINT RHipJoint
	{
		OFFSET 0 0 0
		CHANNELS 3 Zrotation Yrotation Xrotation
		JOINT RightUpLeg
		{
			OFFSET -1.49299 -1.76629 0.73362
			CHANNELS 3 Zrotation Yrotation Xrotation
			JOINT RightLeg
			{
				OFFSET -2.43663 -6.69460 0.00000
				CHANNELS 3 Zrotation Yrotation Xrotation
				JOINT RightFoot
				{
					OFFSET -2.62959 -7.22474 0.00000
					CHANNELS 3 Zrotation Yrotation Xrotation
					JOINT RightToeBase
					{
						OFFSET -0.25784 -0.70841 2.21862
						CHANNELS 3 Zrotation Yrotation Xrotation
						End Site
						{
							OFFSET -0.00000 -0.00000 1.16452
						}
					}
				}
			}
		}
	}
	JOINT LowerBack
	{
		OFFSET 0 0 0
		CHANNELS 3 Zrotation Yrotation Xrotation
		JOINT Spine
		{
			OFFSET -0.00034 2.12399 -0.25450
			CHANNELS 3 Zrotation Yrotation Xrotation
			JOINT Spine1
			{
				OFFSET 0.05594 2.14379 -0.03318
				CHANNELS 3 Zrotation Yrotation Xrotation
				JOINT Neck
				{
					OFFSET 0 0 0
					CHANNELS 3 Zrotation Yrotation Xrotation
					JOINT Neck1
					{
						OFFSET -0.09835 1.62725 0.24211
						CHANNELS 3 Zrotation Yrotation Xrotation
						JOINT Head
						{
							OFFSET 0.10849 1.66041 -0.22648
							CHANNELS 3 Zrotation Yrotation Xrotation
							End Site
							{
								OFFSET 0.04385 1.68267 -0.10541
							}
						}
					}
				}
				JOINT LeftShoulder
				{
					OFFSET 0 0 0
					CHANNELS 3 Zrotation Yrotation Xrotation
					JOINT LeftArm
					{
						OFFSET 3.29108 0.79398 -0.68179
						CHANNELS 3 Zrotation Yrotation Xrotation
						JOINT LeftForeArm
						{
							OFFSET 5.15310 -0.00000 -0.00000
							CHANNELS 3 Zrotation Yrotation Xrotation
							JOINT LeftHand
							{
								OFFSET 3.75138 -0.00000 -0.00000
								CHANNELS 3 Zrotation Yrotation Xrotation
								JOINT LeftFingerBase
								{
									OFFSET 0 0 0
									CHANNELS 3 Zrotation Yrotation Xrotation
									JOINT LeftHandIndex1
									{
										OFFSET 0.52917 -0.00000 0.00000
										CHANNELS 3 Zrotation Yrotation Xrotation
										End Site
										{
											OFFSET 0.42663 -0.00000 0.00000
										}
									}
								}
								JOINT LThumb
								{
									OFFSET 0 0 0
									CHANNELS 3 Zrotation Yrotation Xrotation
									End Site
									{
										OFFSET 0.43315 -0.00000 0.43315
									}
								}
							}
						}
					}
				}
				JOINT RightShoulder
				{
					OFFSET 0 0 0
					CHANNELS 3 Zrotation Yrotation Xrotation
					JOINT RightArm
					{
						OFFSET -3.07414 1.06285 -0.44338
						CHANNELS 3 Zrotation Yrotation Xrotation
						JOINT RightForeArm
						{
							OFFSET -5.29613 -0.00000 0.00000
							CHANNELS 3 Zrotation Yrotation Xrotation
							JOINT RightHand
							{
								OFFSET -3.76144 -0.00000 -0.00000
								CHANNELS 3 Zrotation Yrotation Xrotation
								JOINT RightFingerBase
								{
									OFFSET 0 0 0
									CHANNELS 3 Zrotation Yrotation Xrotation
									JOINT RightHandIndex1
									{
										OFFSET -0.74732 -0.00000 0.00000
										CHANNELS 3 Zrotation Yrotation Xrotation
										End Site
										{
											OFFSET -0.60251 -0.00000 0.00000
										}
									}
								}
								JOINT RThumb
								{
									OFFSET 0 0 0
									CHANNELS 3 Zrotation Yrotation Xrotation
									End Site
									{
										OFFSET -0.61171 -0.00000 0.61171
									}
								}
							}
						}
					}
				}
			}
		}
	}
}
MOTION
Frames: 6
Frame Time: .0083333
9.2139 16.5831 3.8956 28.9545 -58.4596 -17.4240 0.0000 0.0000 0.0000 -23.1520 -6.2652 15.4258 2.8728 10.4862 30.5661 1.2263 0.8979 20.6623 0.0968 -2.0066 -5.5240 0.0000 0.0000 0.0000 28.8857 5.6070 -42.0284 -7.0903 -15.4075 49.2150 0.2537 -10.3104 -9.3585 -0.4118 -4.1192 11.4121 -7.8701 -2.6107 11.2184 -1.9612 -4.6806 -0.2378 3.0908 -2.0992 -6.0947 -13.0014 -7.8837 -23.6891 10.0494 -8.5985 15.7135 4.3001 -3.6800 9.8875 0.0000 -0.0000 0.0000 -90.3507 16.2922 45.0956 128.5686 -53.5567 -92.6785 -0.0000 0.0000 -32.9364 11.7384 11.6202 2.3966 -7.1250 0.0000 -0.0000 -13.7026 41.4422 1.2282 0.0000 -0.0000 0.0000 81.7558 -25.1367 45.8284 -127.5837 53.9247 -91.8843 0.0000 -0.0000 -15.1847 -6.7350 19.7002 -2.2797 7.1250 -0.0000 -0.0000 13.8987 -10.5953 11.4574
8.9998 16.5538 4.1088 29.5140 -59.2261 -17.9950 0.0000 0.0000 0.0000 -23.2881 -6.5904 14.3735 3.4206 11.3467 33.4583 1.1017 1.2003 19.4788 0.0364 -1.2314 -3.3858 0.0000 0.0000 0.0000 29.6984 4.8044 -41.0481 -6.9875 -15.3214 48.8270 0.2676 -10.4049 -9.1551 -1.2125 -6.9852 19.6715 -7.4786 -2.5166 11.3085 -1.6220 -4.4888 -0.3155 3.2117 -2.0011 -6.2482 -12.7786 -7.5177 -23.4953 9.4765 -8.0229 15.1893 4.1535 -3.4674 9.5574 0.0000 -0.0000 0.0000 -90.5269 16.0205 45.8732 127.3467 -54.0111 -91.6927 -0.0000 0.0000 -32.1053 12.8438 10.3283 2.3408 -7.1250 0.0000 -0.0000 -12.4435 40.2567 1.4814 0.0000 -0.0000 0.0000 81.5458 -24.9723 44.8065 -127.6659 53.8946 -91.9507 0.0000 -0.0000 -15.9705 -7.0920 19.7417 -2.4064 7.1250 -0.0000 -0.0000 13.6711 -10.5279 11.2774
8.7841 16.5094 4.3137 30.1096 -60.2541 -18.6334 0.0000 0.0000 0.0000 -23.1107 -6.0697 13.1377 4.0026 12.1638 36.3139 0.9773 0.5438 18.5139 0.0795 -1.8193 -5.0066 0.0000 0.0000 0.0000 30.6737 3.8383 -39.9772 -6.9822 -15.3168 48.8068 0.2296 -10.6709 -10.8461 -1.1128 -6.7017 18.8347 -7.1675 -2.3445 11.2148 -1.2405 -4.1760 -0.2596 3.3871 -1.8548 -6.1590 -12.4467 -7.1820 -23.5292 8.8020 -7.4955 14.8635 3.9434 -3.2741 9.3399 0.0000 -0.0000 0.0000 -91.1268 15.8817 46.7093 126.1352 -54.4401 -90.7098 -0.0000 0.0000 -30.2589 13.7280 9.2439 2.2473 -7.1250 0.0000 -0.0000 -11.4577 39.2413 1.6512 0.0000 -0.0000 0.0000 81.1958 -24.4952 44.0594 -127.6947 53.8840 -91.9740 0.0000 -0.0000 -16.6562 -7.2891 19.7880 -2.4795 7.1250 -0.0000 -0.0000 13.5452 -10.4675 11.1843
8.5635 16.4618 4.5165 30.8967 -61.2972 -19.5246 0.0000 0.0000 0.0000 -22.7430 -5.2023 11.7840 4.6118 12.9329 39.1176 0.8941 0.2017 17.8085 0.1319 -2.3411 -6.4494 0.0000 0.0000 0.0000 31.3973 3.0317 -38.7276 -7.0275 -15.3550 48.9783 0.2177 -11.7644 -13.2525 -0.7622 -5.5754 15.5573 -6.8575 -2.2315 11.0578 -0.9423 -3.9386 -0.0542 3.4778 -1.7590 -5.8740 -12.5285 -7.1253 -24.0569 8.6084 -7.2880 15.0599 3.9165 -3.1913 9.4683 -0.0000 0.0000 0.0000 -92.2859 15.7783 47.6533 125.2416 -54.7432 -89.9814 -0.0000 0.0000 -29.5183 16.3660 9.1689 2.6792 -7.1250 0.0000 -0.0000 -9.1886 39.3689 1.2877 -0.0000 0.0000 0.0000 80.8929 -23.6835 43.5962 -127.6010 53.9184 -91.8983 0.0000 -0.0000 -17.0145 -7.6545 19.9764 -2.6288 7.1250 -0.0000 -0.0000 13.3106 -10.2547 11.0384
8.3374 16.4194 4.7179 31.7603 -62.1901 -20.4261 0.0000 0.0000 0.0000 -22.5411 -4.9791 10.4373 5.2666 13.6778 41.9619 0.8294 0.4787 17.0573 0.1514 -2.5070 -6.9091 0.0000 0.0000 0.0000 31.6720 2.5021 -37.5061 -7.0559 -15.3788 49.0853 0.0386 -10.6941 -14.6238 -0.7775 -5.6299 15.7144 -6.5198 -2.2696 11.0108 -0.6189 -3.9165 -0.0224 3.6227 -1.7552 -5.8139 -12.5641 -6.9123 -23.9841 8.0400 -6.8591 14.9028 3.7891 -3.0577 9.3290 -0.0000 0.0000 0.0000 -93.5156 15.9464 48.3319 125.4573 -54.6711 -90.1574 -0.0000 0.0000 -32.4946 21.4272 10.1557 3.9584 -7.1250 0.0000 -0.0000 -4.9530 40.8226 0.5117 -0.0000 0.0000 0.0000 80.3091 -22.8980 43.5648 -127.4263 53.9822 -91.7571 0.0000 -0.0000 -17.4162 -7.5920 19.9083 -2.5987 7.1250 -0.0000 -0.0000 13.3510 -10.3262 11.0540
8.1136 16.3814 4.9070 32.7084 -62.8671 -21.2099 0.0000 0.0000 0.0000 -22.4533 -5.3199 8.8824 5.9686 14.3979 44.8557 0.7716 1.3936 16.1825 0.1405 -2.4162 -6.6573 0.0000 0.0000 0.0000 31.4748 2.4486 -36.4278 -7.0772 -15.3965 49.1657 -0.1101 -10.1440 -16.0905 -0.6901 -5.3107 14.7970 -6.2521 -2.2821 10.9987 -0.3342 -3.8811 -0.1330 3.7709 -1.7333 -5.9247 -12.3982 -6.7728 -23.7247 7.2269 -6.5827 14.8591 3.5208 -3.0145 9.2011 -0.0000 0.0000 0.0000 -94.4110 16.1286 47.5351 124.4836 -54.9917 -89.3615 -0.0000 0.0000 -30.1342 16.5424 10.2806 3.0343 -7.1250 0.0000 -0.0000 -9.2404 40.5230 1.0300 -0.0000 0.0000 0.0000 79.9219 -22.1197 43.5239 -127.0782 54.1080 -91.4753 0.0000 -0.0000 -17.7566 -7.6226 19.7706 -2.5919 7.1250 -0.0000 -0.0000 13.3333 -10.4585 11.0015
